<svg xmlns="http://www.w3.org/2000/svg" width="15" height="14" fill="none" viewBox="0 0 15 14"><path fill="#D7E3FC" d="M7.09961 1.10059C7.93294 1.10059 8.71363 1.25853 9.44141 1.5752C10.169 1.89179 10.802 2.31968 11.3408 2.8584C11.8797 3.39729 12.3083 4.03101 12.625 4.75879C12.9416 5.48648 13.0996 6.26737 13.0996 7.10059C13.0996 7.9338 12.9416 8.7147 12.625 9.44238C12.3083 10.1701 11.8796 10.803 11.3408 11.3418C10.802 11.8806 10.169 12.3084 9.44141 12.625C8.71363 12.9417 7.93294 13.1006 7.09961 13.1006C6.26628 13.1006 5.48559 12.9417 4.75781 12.625C4.03019 12.3084 3.3972 11.8806 2.8584 11.3418C2.31957 10.803 1.89088 10.1701 1.57422 9.44238C1.25759 8.7147 1.09965 7.9338 1.09961 7.10059C1.09961 6.26737 1.25764 5.48648 1.57422 4.75879C1.89089 4.03101 2.31951 3.39729 2.8584 2.8584C3.3972 2.31968 4.03022 1.89179 4.75781 1.5752C5.48559 1.25853 6.26628 1.10059 7.09961 1.10059ZM7.09961 2.43359C5.79961 2.43359 4.69657 2.88644 3.79102 3.79199C2.88557 4.69752 2.43262 5.80066 2.43262 7.10059C2.43269 8.40029 2.88575 9.50278 3.79102 10.4082C4.69657 11.3138 5.79961 11.7666 7.09961 11.7666C8.39961 11.7666 9.50265 11.3138 10.4082 10.4082C11.3135 9.50278 11.7665 8.40029 11.7666 7.10059C11.7666 5.80066 11.3137 4.69752 10.4082 3.79199C9.50265 2.88644 8.39961 2.43359 7.09961 2.43359ZM7.7666 3.7666V6.83398L9.89941 8.9668L8.96582 9.90039L6.43262 7.36719V3.7666H7.7666ZM3.7666 0.933594L0.932617 3.7666L0 2.83398L2.83301 0L3.7666 0.933594ZM14.1992 2.83398L13.2666 3.7666L10.4326 0.933594L11.3662 0L14.1992 2.83398Z"/></svg>