<svg xmlns="http://www.w3.org/2000/svg" width="20" height="20" fill="none" viewBox="0 0 20 20"><path fill="#737373" d="M8.95801 3C11.144 3 12.9168 4.77203 12.917 6.95801C12.917 8.26692 12.281 9.42667 11.3018 10.1475C11.9936 10.4433 12.6296 10.8699 13.1719 11.4121C14.2891 12.5294 14.9169 14.0449 14.917 15.625C14.9168 15.9699 14.6369 16.2498 14.292 16.25C13.9471 16.2498 13.6672 15.9699 13.667 15.625C13.6669 14.3765 13.1709 13.1788 12.2881 12.2959C11.4051 11.4129 10.2067 10.917 8.95801 10.917C7.70952 10.9172 6.51174 11.4131 5.62891 12.2959C4.7462 13.1788 4.25009 14.3765 4.25 15.625C4.24982 15.97 3.97007 16.25 3.625 16.25C3.28008 16.2498 3.00018 15.9699 3 15.625C3.00009 14.045 3.62799 12.5294 4.74512 11.4121C5.28727 10.87 5.92371 10.4433 6.61523 10.1475C5.63624 9.42666 5 8.26686 5 6.95801C5.00018 4.77225 6.77229 3.00035 8.95801 3ZM13.4551 3.77344C13.6311 3.4766 14.0137 3.37872 14.3105 3.55469C14.87 3.88655 15.3396 4.35093 15.6768 4.90723C16.0138 5.46353 16.2089 6.09464 16.2441 6.74414C16.2793 7.39369 16.1539 8.0423 15.8789 8.63184C15.7124 8.98874 15.4932 9.31693 15.2314 9.60742C16.4842 10.813 17.5838 12.8062 17.584 14.958C17.5839 15.303 17.304 15.5828 16.959 15.583C16.6138 15.583 16.3341 15.3031 16.334 14.958C16.3338 12.9361 15.1164 11.0247 13.917 10.125C13.7598 10.007 13.667 9.82158 13.667 9.625C13.667 9.42836 13.7597 9.24301 13.917 9.125C14.273 8.85785 14.5579 8.50691 14.7461 8.10352C14.9342 7.70026 15.0201 7.25681 14.9961 6.8125C14.972 6.36804 14.839 5.93537 14.6084 5.55469C14.3778 5.17415 14.0565 4.85596 13.6738 4.62891C13.377 4.45285 13.2791 4.0703 13.4551 3.77344ZM8.95801 4.25C7.46264 4.25035 6.25018 5.4626 6.25 6.95801C6.25 8.45356 7.46254 9.66664 8.95801 9.66699C10.4538 9.66699 11.667 8.45378 11.667 6.95801C11.6668 5.46239 10.4537 4.25 8.95801 4.25Z"/></svg>