<svg xmlns="http://www.w3.org/2000/svg" width="20" height="20" fill="none" viewBox="0 0 20 20"><rect width="20" height="20" fill="#CCDEFF" rx="2"/><path stroke="#737373" stroke-linecap="round" stroke-linejoin="round" stroke-width="1.5" d="M10.3333 17.1663H14C14.3536 17.1663 14.6927 17.0259 14.9428 16.7758C15.1928 16.5258 15.3333 16.1866 15.3333 15.833V7.16634L12 3.83301H5.99996C5.64634 3.83301 5.3072 3.97348 5.05715 4.22353C4.8071 4.47358 4.66663 4.81272 4.66663 5.16634V11.4997"/><path stroke="#737373" stroke-linecap="round" stroke-linejoin="round" stroke-width="1.5" d="M11.3334 3.83301V6.49967C11.3334 6.8533 11.4739 7.19244 11.7239 7.44248C11.9739 7.69253 12.3131 7.83301 12.6667 7.83301H15.3334"/><path stroke="#737373" stroke-linecap="round" stroke-linejoin="round" stroke-width="1.5" d="M10.9187 12.9174C11.0502 12.7859 11.1545 12.6298 11.2257 12.458C11.2968 12.2862 11.3335 12.1021 11.3335 11.9161C11.3335 11.7301 11.2968 11.546 11.2257 11.3742C11.1545 11.2024 11.0502 11.0463 10.9187 10.9148C10.7872 10.7833 10.6311 10.679 10.4593 10.6078C10.2875 10.5366 10.1033 10.5 9.91736 10.5C9.73139 10.5 9.54725 10.5366 9.37544 10.6078C9.20363 10.679 9.04752 10.7833 8.91602 10.9148L5.57603 14.2561C5.41752 14.4145 5.30151 14.6103 5.23869 14.8254L4.68069 16.7388C4.66396 16.7961 4.66296 16.8569 4.67779 16.9148C4.69262 16.9727 4.72274 17.0255 4.76499 17.0678C4.80724 17.1101 4.86008 17.1402 4.91796 17.155C4.97585 17.1698 5.03666 17.1688 5.09403 17.1521L7.00736 16.5941C7.22247 16.5313 7.41828 16.4153 7.57669 16.2568L10.9187 12.9174Z"/></svg>