<svg xmlns="http://www.w3.org/2000/svg" width="21" height="21" fill="none" viewBox="0 0 21 21"><rect width="21" height="21" fill="#D3FFF1" rx="2"/><path fill="#64748B" d="M10.0529 5C11.926 5.0003 13.4443 6.5194 13.4445 8.39258C13.4444 9.44972 12.9602 10.3937 12.2023 11.0156C12.7255 11.2617 13.2074 11.598 13.6241 12.0146C14.5717 12.9622 15.1046 14.2478 15.1046 15.5879C15.1044 15.9329 14.8246 16.2128 14.4796 16.2129C14.1348 16.2126 13.8548 15.9328 13.8546 15.5879C13.8546 14.5794 13.4535 13.6125 12.7404 12.8994C12.0272 12.1864 11.0603 11.7852 10.0519 11.7852C9.04352 11.7853 8.07643 12.1864 7.3634 12.8994C6.65049 13.6125 6.24915 14.5795 6.24915 15.5879C6.24898 15.9329 5.96922 16.2129 5.62415 16.2129C5.27929 16.2126 4.99931 15.9328 4.99915 15.5879C4.99915 14.248 5.53131 12.9622 6.47864 12.0146C6.89546 11.5978 7.37797 11.2607 7.90149 11.0146C7.1439 10.3927 6.66036 9.44927 6.66028 8.39258C6.66045 6.51921 8.17945 5 10.0529 5ZM13.6935 5.69434C13.8695 5.39758 14.2521 5.29983 14.549 5.47559C15.0285 5.75998 15.4309 6.15801 15.7198 6.63477C16.0088 7.11157 16.176 7.65229 16.2062 8.20898C16.2364 8.76577 16.1284 9.32182 15.8927 9.82715C15.7642 10.1024 15.5986 10.357 15.4034 10.5869C16.4317 11.6116 17.3185 13.2563 17.3185 15.0342C17.3184 15.3793 17.0386 15.6592 16.6935 15.6592C16.3485 15.659 16.0685 15.3792 16.0685 15.0342C16.0685 13.3935 15.0778 11.8363 14.1046 11.1064C13.9474 10.9884 13.8546 10.8031 13.8546 10.6064C13.8546 10.4098 13.9474 10.2245 14.1046 10.1064C14.3861 9.89524 14.611 9.61771 14.7599 9.29883C14.9087 8.97985 14.9771 8.6288 14.9581 8.27734C14.9391 7.92574 14.834 7.58337 14.6515 7.28223C14.469 6.98122 14.215 6.72939 13.9122 6.5498C13.6156 6.3737 13.5177 5.9911 13.6935 5.69434ZM10.0529 6.25C8.8698 6.25 7.91045 7.20956 7.91028 8.39258C7.91043 9.57561 8.86979 10.5342 10.0529 10.5342C11.2357 10.5339 12.1943 9.57542 12.1945 8.39258C12.1943 7.20975 11.2357 6.2503 10.0529 6.25Z"/></svg>