<svg xmlns="http://www.w3.org/2000/svg" width="20" height="20" fill="none" viewBox="0 0 20 20"><rect width="20" height="20" fill="#E4D8FF" rx="2"/><path stroke="#737373" stroke-linecap="round" stroke-linejoin="round" stroke-width="1.5" d="M10 3.83301C11.2934 3.83277 12.559 4.20879 13.6425 4.91525C14.7259 5.6217 15.5805 6.62807 16.102 7.8117C16.6235 8.99533 16.7894 10.3051 16.5795 11.5814C16.3697 12.8577 15.7931 14.0454 14.92 14.9997"/><path stroke="#737373" stroke-linecap="round" stroke-linejoin="round" stroke-width="1.5" d="M10 6.5V10.5L12.6667 11.8333"/><path stroke="#737373" stroke-linecap="round" stroke-linejoin="round" stroke-width="1.5" d="M3.66671 8.41699C3.45427 9.06276 3.34186 9.73723 3.33337 10.417"/><path stroke="#737373" stroke-linecap="round" stroke-linejoin="round" stroke-width="1.5" d="M3.88672 13.167C4.26105 14.0282 4.81311 14.8006 5.50672 15.4337"/><path stroke="#737373" stroke-linecap="round" stroke-linejoin="round" stroke-width="1.5" d="M5.0907 5.99028C5.27673 5.78777 5.4751 5.59696 5.6847 5.41895"/><path stroke="#737373" stroke-linecap="round" stroke-linejoin="round" stroke-width="1.5" d="M7.7627 16.7797C9.42516 17.3719 11.2546 17.2808 12.85 16.5264"/></svg>