<svg width="60" height="60" viewBox="0 0 60 60" fill="none" xmlns="http://www.w3.org/2000/svg">
<rect width="60" height="60" rx="30" fill="#021034"/>
<path d="M17.7905 24.9237C17.5717 23.9374 17.6053 22.9118 17.8883 21.9419C18.1712 20.9721 18.6944 20.0894 19.4092 19.3758C20.1241 18.6621 21.0075 18.1406 21.9776 17.8596C22.9476 17.5785 23.9729 17.547 24.9583 17.7681C25.5007 16.9194 26.2479 16.2211 27.1311 15.7373C28.0142 15.2536 29.0049 15 30.0118 15C31.0187 15 32.0093 15.2536 32.8925 15.7373C33.7756 16.2211 34.5228 16.9194 35.0652 17.7681C36.0522 17.5461 37.0792 17.5774 38.0508 17.8591C39.0224 18.1409 39.907 18.6639 40.6223 19.3794C41.3376 20.095 41.8604 20.9799 42.142 21.9519C42.4236 22.9239 42.4549 23.9513 42.233 24.9387C43.0813 25.4813 43.7794 26.2288 44.263 27.1123C44.7465 27.9958 45 28.9869 45 29.9941C45 31.0014 44.7465 31.9924 44.263 32.8759C43.7794 33.7594 43.0813 34.5069 42.233 35.0496C42.454 36.0354 42.4225 37.0611 42.1416 38.0315C41.8606 39.0019 41.3393 39.8857 40.6259 40.6008C39.9126 41.316 39.0303 41.8394 38.0608 42.1224C37.0913 42.4055 36.0661 42.4391 35.0802 42.2202C34.5385 43.0721 33.7907 43.7734 32.9061 44.2593C32.0214 44.7453 31.0285 45 30.0193 45C29.0101 45 28.0171 44.7453 27.1325 44.2593C26.2478 43.7734 25.5 43.0721 24.9583 42.2202C23.9729 42.4412 22.9476 42.4097 21.9776 42.1287C21.0075 41.8476 20.1241 41.3261 19.4092 40.6125C18.6944 39.8988 18.1712 39.0161 17.8883 38.0463C17.6053 37.0765 17.5717 36.0509 17.7905 35.0646C16.9357 34.5234 16.2316 33.7747 15.7437 32.8882C15.2558 32.0017 15 31.0061 15 29.9941C15 28.9821 15.2558 27.9866 15.7437 27.1C16.2316 26.2135 16.9357 25.4649 17.7905 24.9237Z" stroke="white" stroke-width="2" stroke-linecap="round" stroke-linejoin="round"/>
<path d="M25.457 30L28.4846 32.8899L34.5396 27.1101" stroke="white" stroke-width="2" stroke-linecap="round" stroke-linejoin="round"/>
</svg>
